<?xml version="1.0" encoding="UTF-8"?>
<svg id="Layer_1" xmlns="http://www.w3.org/2000/svg" version="1.1" viewBox="0 0 462.3 989.1">
  <!-- Generator: Adobe Illustrator 29.1.0, SVG Export Plug-In . SVG Version: 2.1.0 Build 142)  -->
  <path d="M69.2,45.9C130.6,7.3,207.9,7.9,280.5,9.7c27.6.7,56.4,1.7,80.9,14.4,46.4,24,63.7,81.6,67.6,133.7,3.3,44,.5,88.3-.9,132.4-6.5,209.9,40,399.7,3.3,606.5-1.3,7.4-7.1,28.2-27.3,43.4-6.8,5.1-13.8,9.8-22,12.5-66.6,21.7-137.6,30.1-207.4,24.5-39.8-3.2-80.5-11.4-113.4-34-8.6-5.9-16.8-13-22.1-22-11.2-18.9-8.2-42.6-5.8-64.4,16.9-153.1-9.6-307.5-9-461.5.2-68.1,5.7-137-7.6-203.8-3.3-16.4-6.8-83.3.5-104.2s33.1-29.4,51.8-41.2Z" style="fill: #fff;"/>
</svg>