<?xml version="1.0" encoding="UTF-8"?>
<svg id="Layer_1" xmlns="http://www.w3.org/2000/svg" version="1.1" viewBox="0 0 989.1 462.3">
  <!-- Generator: Adobe Illustrator 29.1.0, SVG Export Plug-In . SVG Version: 2.1.0 Build 142)  -->
  <path d="M954.7,102.8c23.3,60.4,22.4,108.4,20.6,180.9-.7,27.6-1.7,56.4-14.4,80.9-24,46.4-114.9,85.8-223.5,70.7-43.8-6.1-207.7,3.9-251.9,2.5-209.9-6.5-190.4,33.5-397.2-3.1-7.4-1.3-28.2-7.1-43.4-27.3-5.1-6.8-9.8-13.8-12.5-22C10.8,318.8,2.4,247.9,8,178.1c3.2-39.8,11.1-89.8,34-113.4,32.1-33,91.7-31.1,113.7-30.5,62.8,1.7,63-19.6,217-19.1,68.1.2,353,9.2,421,5.1,33.5-2,83.3,14.2,104.2,21.5s48.8,40.5,56.8,61.2Z" style="fill: #fff;"/>
</svg>