<?xml version="1.0" encoding="UTF-8"?>
<svg xmlns="http://www.w3.org/2000/svg" xmlns:xlink="http://www.w3.org/1999/xlink" version="1.1" viewBox="0 0 1080 1080">
  <!-- Generator: Adobe Illustrator 28.7.1, SVG Export Plug-In . SVG Version: 1.2.0 Build 142)  -->
  <g>
    <g id="Layer_2" display="none">
      <image width="1024" height="1024" transform="translate(28 28)" xlink:href="../../../../Downloads/DALL·E 2024-09-07 10.09.24 - A detailed logo icon of a treehouse. The treehouse is built on a large, sturdy tree with green leaves, visible wooden planks, and a rope ladder hangin.webp"/>
    </g>
    <g id="Leaves">
      <path d="M479.9,665.7c-37.2,2.5-66.7-22.8-66.7-22.8-37.2,19.4-81.9,5.2-87-33.3-52.4,8.8-87-41.6-87-69.6-32.9-24.6-38.9-103.2-11-127.7-17.7-32.1,9.3-92.9,37.2-102.2-8.4-29.6,45.6-98,90.4-90.4-4.2-37.2,91.2-76.9,128.4-54.1,22.8-30.4,109-27,126.7-1.7,29.6-19.4,119.1,4.2,132.6,54.9,47.3,1.7,83.1,50.7,80.8,85.3,39.1,16,56,64.2,47.6,108.1,31.3,25.3,16.9,94.6-11,116.6.8,43.9-50.7,85.3-87.8,85.3-17.7,46.5-97.7,65-135.4,41.4-47,24.5-79.7,22.8-108.1,4.2-24.2,5.9-49.6,5.9-49.6,5.9Z" fill="#fcf9e9"/>
      <path d="M479.9,665.7c-37.2,2.5-66.7-22.8-66.7-22.8-37.2,19.4-81.9,5.2-87-33.3-52.4,8.8-87-41.6-87-69.6-32.9-24.6-38.9-103.2-11-127.7-17.7-32.1,9.3-92.9,37.2-102.2-8.4-29.6,45.6-98,90.4-90.4-4.2-37.2,91.2-76.9,128.4-54.1,22.8-30.4,109-27,126.7-1.7,29.6-19.4,119.1,4.2,132.6,54.9,47.3,1.7,83.1,50.7,80.8,85.3,39.1,16,56,64.2,47.6,108.1,31.3,25.3,16.9,94.6-11,116.6.8,43.9-50.7,85.3-87.8,85.3-17.7,46.5-97.7,65-135.4,41.4-47,24.5-79.7,22.8-108.1,4.2-24.2,5.9-49.6,5.9-49.6,5.9Z" display="none" fill="#7ea97f"/>
      <path d="M479.9,665.7c-37.2,2.5-66.7-22.8-66.7-22.8-37.2,19.4-81.9,5.2-87-33.3-52.4,8.8-87-41.6-87-69.6-32.9-24.6-38.9-103.2-11-127.7-17.7-32.1,9.3-92.9,37.2-102.2-8.4-29.6,45.6-98,90.4-90.4-4.2-37.2,91.2-76.9,128.4-54.1,22.8-30.4,109-27,126.7-1.7,29.6-19.4,119.1,4.2,132.6,54.9,47.3,1.7,83.1,50.7,80.8,85.3,39.1,16,56,64.2,47.6,108.1,31.3,25.3,16.9,94.6-11,116.6.8,43.9-50.7,85.3-87.8,85.3-17.7,46.5-97.7,65-135.4,41.4-47,24.5-79.7,22.8-108.1,4.2-24.2,5.9-49.6,5.9-49.6,5.9Z" fill="#7ea97f"/>
      <path d="M479.9,665.7c-37.2,2.5-66.7-22.8-66.7-22.8-37.2,19.4-81.9,5.2-87-33.3-52.4,8.8-87-41.6-87-69.6-32.9-24.6-38.9-103.2-11-127.7-17.7-32.1,9.3-92.9,37.2-102.2-8.4-29.6,45.6-98,90.4-90.4-4.2-37.2,91.2-76.9,128.4-54.1,22.8-30.4,109-27,126.7-1.7,29.6-19.4,119.1,4.2,132.6,54.9,47.3,1.7,83.1,50.7,80.8,85.3,39.1,16,56,64.2,47.6,108.1,31.3,25.3,16.9,94.6-11,116.6.8,43.9-50.7,85.3-87.8,85.3-17.7,46.5-97.7,65-135.4,41.4-47,24.5-79.7,22.8-108.1,4.2-24.2,5.9-49.6,5.9-49.6,5.9Z" fill="none" stroke="#2d1c17" stroke-linecap="round" stroke-linejoin="round" stroke-width="14.2"/>
    </g>
    <g id="Layer_1_copy">
      <path d="M738.4,407.2l1-72.1v-2.6l28.3,2.6v-21.6l-116-97.8-191.6-27-128.3,124.8v21.6h32.4l7-4.5v63.9l-90.1,7.1v138.4l78.1-3,5,7.1,115.7,121.6v255.9l130.9-70v-191.9l156.8-119.8v-2.6c.1,0,60.8,2.6,60.8,2.6v-138.4l-90.1,5.6ZM479.9,540v55.4c0,0-53.2-55.4-53.2-55.4l-.2-5.7,53.4-2.1v7.8ZM693.1,534.8l-82.3,63.9v-67.9l82.3,3.5v.5Z" fill="#fcf9e9"/>
    </g>
    <g id="Layer_1">
      <g>
        <path d="M529.4,761.8c-13.5,0-24.4-10.9-24.4-24.4s10.9-24.4,24.4-24.4,24.4,10.9,24.4,24.4-10.9,24.4-24.4,24.4Z" fill="#fefefc"/>
        <path d="M529.4,720.1c9.6,0,17.3,7.8,17.3,17.3s-7.8,17.3-17.3,17.3-17.3-7.8-17.3-17.3,7.8-17.3,17.3-17.3M529.4,705.9c-17.4,0-31.5,14.1-31.5,31.5s14.1,31.5,31.5,31.5,31.5-14.1,31.5-31.5-14.1-31.5-31.5-31.5h0Z" fill="#2d1c17"/>
      </g>
      <line x1="582.1" y1="659.8" x2="582.1" y2="914.9" fill="#fefefc" stroke="#2d1c17" stroke-linecap="round" stroke-miterlimit="10" stroke-width="14.2"/>
      <line x1="550.8" y1="793.3" x2="550.8" y2="826.2" fill="#fefefc" stroke="#2d1c17" stroke-linecap="round" stroke-miterlimit="10" stroke-width="14.2"/>
      <line x1="550.8" y1="865.9" x2="550.8" y2="921.6" fill="#fefefc" stroke="#2d1c17" stroke-linecap="round" stroke-miterlimit="10" stroke-width="14.2"/>
      <line x1="550.8" y1="679.2" x2="550.8" y2="540" fill="#fefefc" stroke="#2d1c17" stroke-linecap="round" stroke-miterlimit="10" stroke-width="14.2"/>
      <line x1="517.9" y1="921.6" x2="517.9" y2="800" fill="#fefefc" stroke="#2d1c17" stroke-linecap="round" stroke-miterlimit="10" stroke-width="14.2"/>
      <line x1="517.9" y1="686.8" x2="517.9" y2="665.7" fill="#fefefc" stroke="#2d1c17" stroke-linecap="round" stroke-miterlimit="10" stroke-width="14.2"/>
      <line x1="517.9" y1="636.1" x2="517.9" y2="540" fill="#fefefc" stroke="#2d1c17" stroke-linecap="round" stroke-miterlimit="10" stroke-width="14.2"/>
      <polyline points="479.9 921.6 479.9 665.7 364.2 544.1" fill="none" stroke="#2d1c17" stroke-linecap="round" stroke-linejoin="round" stroke-width="14.2"/>
      <line x1="426.7" y1="540" x2="493.4" y2="609.6" fill="#fefefc" stroke="#2d1c17" stroke-linecap="round" stroke-miterlimit="10" stroke-width="14.2"/>
      <line x1="479.9" y1="540" x2="479.9" y2="592.1" fill="#fefefc" stroke="#2d1c17" stroke-linecap="round" stroke-miterlimit="10" stroke-width="14.2"/>
      <polyline points="582.1 540 582.1 620.9 693.1 534.8" fill="none" stroke="#2d1c17" stroke-linecap="round" stroke-linejoin="round" stroke-width="14.2"/>
      <polyline points="767.6 540 610.8 659.8 610.8 921.6" fill="none" stroke="#2d1c17" stroke-linecap="round" stroke-linejoin="round" stroke-width="14.2"/>
      <line x1="610.8" y1="598.6" x2="610.8" y2="540" fill="#fefefc" stroke="#2d1c17" stroke-linecap="round" stroke-miterlimit="10" stroke-width="14.2"/>
      <polyline points="738.4 407.2 828.5 401.6 828.5 540 566 528.9 281.1 540 281.1 401.6 567.2 379.1 589.7 381.3 589.7 412.5 564.9 410.2 286.4 429.2" fill="none" stroke="#2d1c17" stroke-linecap="round" stroke-linejoin="round" stroke-width="14.2"/>
      <line x1="571.1" y1="417.4" x2="571.1" y2="528.9" fill="none" stroke="#2d1c17" stroke-linecap="round" stroke-linejoin="round" stroke-width="14.2"/>
      <polyline points="281.1 496.2 571.1 482.7 828.5 496.2" fill="none" stroke="#2d1c17" stroke-linecap="round" stroke-linejoin="round" stroke-width="14.2"/>
      <polyline points="371.2 394.5 371.2 330.7 466.9 232.7 571.1 318.3 571.1 379.1" fill="none" stroke="#2d1c17" stroke-linecap="round" stroke-linejoin="round" stroke-width="14.2"/>
      <polyline points="364.2 335.2 331.8 335.2 331.8 313.6 460 188.7 651.6 215.8 767.6 313.6 767.6 335.2 583.1 318.3 582.1 289 460.9 189.4" fill="none" stroke="#2d1c17" stroke-linecap="round" stroke-linejoin="round" stroke-width="14.2"/>
      <line x1="738.4" y1="489.5" x2="739.4" y2="335.2" fill="none" stroke="#2d1c17" stroke-linecap="round" stroke-linejoin="round" stroke-width="14.2"/>
    </g>
  </g>
</svg>