<?xml version="1.0" encoding="UTF-8"?>
<svg id="Layer_1" xmlns="http://www.w3.org/2000/svg" version="1.1" viewBox="0 0 821.6 564.9">
  <!-- Generator: Adobe Illustrator 29.1.0, SVG Export Plug-In . SVG Version: 2.1.0 Build 142)  -->
  <path fill="currentColor" d="M798.8,464c-.2-.3-.4-.6-.6-.9,0,0-.2-.1-.5-.3h0c-35.9-22.4-77.5-30.3-116-45.7-9.5-27.7-17.9-63-32.2-88-3.7-6.5-13-15.5-15.1-20.9-10.4-26.2-13.1-77.6-20.6-107.9-10.9-43.9-33.2-81.1-50.1-121.8-10-24.1-12.2-63.2-43.7-53.7-15.3,4.6-64.9,34.9-81.2,45.1-33.6,21.1-65.3,55.2-97.2,74-36.1,21.3-80.4,34-117.3,56-28.4,17-54.8,41.9-82,59.8-7.1,4.7-33.1,17.1-40.3,16.4-8.4-.9-24-10.8-33.4-14-3.4-1.1-16.8-4.9-26.7-6.9-5.6-1.1-10.7,3.6-10.8,9.9-.6,27.5-12.5,60.1-7.5,84.7,3.6,17.5,10.6,4.2,17.7,4.4,15.5.5,75.4,28,93.7,36,6.6,2.9,48,22.5,50.5,23.8,3.9,2,12.8,5.5,17.8,7,66.4,21.6,132.9,37.8,201.9,46.3,27.6,3.4,48.4,6.7,82.9,8.9,43.9,2,100,17,128.4,27.1,19.1,6.8,44.3,16.3,65,21.1,32.9,7.7,67.9,9.3,101.3,17,2.2-8.6,4.3-17.2,6.7-25.7,4.1-15,9.7-29.9,9.9-45.8,0-1.1,0-2.1.2-3.1l-.5-2.8ZM621.5,310.8l-5.1,5.3c-11,4-26.8,5.8-37,9.9-2.2.9-3.8,2.2-3.5,5.1l36,69.9c-1.6,1.6-27.7-5.1-31.1-8.7-2.7-2.9-8-15.5-11.2-20.8-13.5-21.6-29-41.8-38.8-66-23.3,5.7-41.2,40.1-66.7,26.8.2,6.4,5.9,8.1,8.1,14.3,2.8,7.7,1.7,17.2,5.8,24.6-1.6,3.6-5.9-1.1-7-1.1h-35l30-47.7c30.9-40.8,77.7-59.3,115.7-88.9,5.8-4.5,11.9-7.6,10.2-16.4-6.5-1-11.9,3.1-17.3,6.3-37.5,21.8-87.4,56.6-118.6,88-9.7,9.7-41.7,50.5-51.1,52.2-3.9.7-15.6-.2-11.9-6.7,3-5.1,16.1-18.3,21-23.3,34.5-35.5,73.9-72.1,113.3-100.5,20.8-14.9,42.6-28,63.6-42.6l30.5,120.6ZM503.9,355.2c1-1.6,27.8-20.3,29.5-20.7,3-.7,14.7,13.4,12.6,15.2l-43.9,15.5c-.3-3.9-.3-6.8,1.9-10.1ZM527,314.4c3.5,2.6,3.7,6.5,2.7,10.8l-25.7,13.5c-3.1-3.3,18.7-23.7,23-24.3ZM550.6,356.8c5.7,1.6,18,27.3,23.4,32.9l-56-12.1-7.9-4.5c0-2.4,36.5-17.4,40.5-16.3ZM380.1,149.1c18.6,18.6,36.4,38,54,57.7,3.4,3.8,5.3,8.6,8.9,12.4,14.4,15.2,19.4,11.8,35.8,4,27.3-12.9,54.6-32.5,81.4-47.3,1.2-1.2,1.6-2.4,1.5-4.1-.6-7.6-28.1-43.5-34.1-53.2-12.1-19.6-22.6-40.2-33.3-60.7-.8-3.8,14.4-12,17.7-13,12.6-3.9,15.9,0,21.7,11.5,14,27.7,28.1,57.6,40,86.4,2.1,5.2,16,38.8,14.3,40.7-18.1-5.5-33.7,5.4-48.6,15.9-54.3,38.3-106.4,94.5-160.1,135l-22.2,26.1c-43.8-5.6-86.3-17.7-128.7-30.6-1.3-5.7,3-4.4,6-7.6,5.6-5.8,26.8-33.8,30.9-33.8,2.1,0,15.2,10.2,17.9,12.6,9.7,8.6,31.3,36.5,42.2,37.6,6.9.8,15.9-6.8,21.5-11.5,3.8-3.2,21.7-19.9,23.4-22.8,3.5-5.9,1.2-9.5-4.1-12.3-1.3,5.4-8.7,11.7-13.1,15.5-7.7,6.7-26.5,24-34.9,14.5,16.8-10,25.7-37.7,45.9-37.7-.3-9.2-40.1-35.9-48.2-42-2.4-2.1,1.9-14.2,3.5-14.6,7.7-1,13.9,4.1,19.7,9.1,10.4,9,39,50.3,46.4,52.8,3.5,1.2,7.1,1,10.5-.8,3-1.5,18.8-12.9,21.9-15.6,27.4-23.3,1.3-45.1-12.7-65.5-3.8-5.5-6.5-11.9-10.3-17.4-9.1-13-22.1-22.9-26.8-40.1,4-.7,7.9-3.9,11.9-1.2ZM314.6,291.4c-2.5,3.6-5.9,13.5-6.5,14-3.5,2.8-15.1-5.7-12.9-11,2.1-5.2,37.6-34.8,41-31,4.4,4.8-18.3,23.3-21.6,28ZM350.2,277.7c-2.9,4.7-7.7,7.3-11.2,10.9-7.9,8.3-15.6,16.8-24.8,23.5-.9-5.2,2.2-8,4.4-11.8,4.4-7.9,25.8-39.9,31.6-22.6ZM319.2,261.1c-9.6,9.8-22.2,18.3-32.9,26.7-.4-4.8-.3-7.5,2.9-11.2,4.1-4.6,21.4-18.2,26.8-21.3,1.9-1.1,6.4-4.9,8.3-3,2.1,2.1-3.7,7.4-5,8.8ZM408.2,226.7c-.7,6.8-14.3,16.1-19.1,21-3.9,4-6.6,9.5-9.6,12.6-.4.5-5.2,4.2-5.4,1.8-1.5-9.4,26.3-43.4,31-43.2,2.1.1,3.3,4.9,3,7.7ZM411.5,237c5.6-1.6,15.8,9.6,10.4,18.4-1,1.6-24.2,23.8-25.8,24.6-8.8,4.6-16.6-4.3-13-12.1,1-2.1,26.5-30.3,28.4-30.9ZM368.3,242.4c-6.4,5.3-11.6,3.9-9.1-5.7,7.8-3.3,27-29.1,32.4-30.7,3.7-1.1,6.5.7,6.7,5.2-10.5,8.1-20.3,23.2-29.9,31.2ZM383.9,195.3c-1.1,4.5-32.2,34.4-33.7,32.5-.5-6.1,3.7-11.1,7-15.6,2.6-3.6,21.6-24.9,24-24.4,2.3.5,3.5,4.4,2.7,7.4ZM370.2,182.5l-32,34.3c-.8-8.7,7.6-12.9,11.9-18.9,6.6-9.2,11.8-23.6,24-23.2l-3.9,7.8ZM364.2,159.1c.8,8-6.2,10.3-9.3,14-3,3.5-27.9,35.8-30.6,32.5,0-4.5,3.7-8.7,6-12.2,8.5-12.5,20.8-28.8,33.9-34.4ZM226.3,222.3c34.4-21.1,73.6-34.9,108.9-54.3,3.1,1.7,0,3.9-.9,5.6-3.2,5.9-17.8,28.1-22,30.7-2.4,1.5-7.8-.3-10,4.7.6,3.1,7.6,10,7.6,11.1,0,.8-6.5,9.4-7.8,13.2-1.8,5.5-1.2,10.4-2.4,15.1-3,12.2-28.8,32.1-41.2,28.5-4,20.6-24.9,34.2-39.5,45.8-30.8-10.9-64.3-18.9-92.6-36.1,38.2-13.2,65.8-43.5,99.8-64.4ZM274.7,425.8c-3.3-1.2-5.3,1.1-4.4-5,14.4,2.4,27.6,1.6,41.3,7.6.6.2.7,2.3,1.2,2.6,1.4.9,4.9-1.8,5.5,3.1-13.8-1.3-30.3-3.5-43.6-8.3ZM324.2,423c-3.7,3.9-45.2-13.6-53.9-11,1-6.2-2.9-26.4,3.3-28.6,9-3.3,43.5,12,54.7,13.1l-4.1,26.5ZM395.3,449.6c-6.3-4.5-40.7-5.4-42.9-9.1-.9-1.4-.4-7.2-.3-9.7.4-7.5,6.9-.8,11,0,6.1,1.1,34.1,2.2,36.1,5.5,2.4,3.9,1.5,13.6-4,13.4ZM402.2,427.5l-42.7-2.5c-5.2-1.9-4.9-15.1,1.2-14.8,12.4.7,25.4,5.4,38.2,4.3,4.6,1.7,3.2,8.6,3.3,13ZM486.1,460.8c-7-4.6-47.1-2.8-49.7-6.9-2.1-3.4,1.1-13.2,1.7-17.5,6.1,2.8,13.7,2.8,20.4,3,2.8,0,4.8,3.1,7.5-1.9l-15.3-5.4-10.7,2.1c1.6-2.8,1.6-14.9,2-15.5,1.9-2.6,43.9,3.3,43.9,10v32.2ZM773.9,519.7c-.9.7-1.9,1.1-3.1,1-29.6-8.2-61.1-11.2-90.6-19.3-37.6-10.4-72.7-25.8-111.9-33.3-24.2-4.7-47.9-5.2-72.3-7.4l3.2-33.4c-1.7-2.6-18.8-6.6-23.1-7.7-7.5-1.9-37.6-9.4-42.7-7.5-1.9.7-2.3,1.5-2.9,3.4-2,6.1-4.9,31.9-9.6,33.7-2.6,1-6,0-8.7.3-2.5-7.6,10.1-34.8,4.1-38.9-3.2-2.2-29.5-6.6-35.3-7.4-10.3-1.4-21.1-.3-31.4-2.6-4.7,1.2-4.5,40.2-6.3,40.1-3.5-1.7-11.9-1.8-12.8-5.8-1-4.2,4.3-26.3,4.1-33,0-2,0-3.9-1.1-5.7-2.4-3.7-61.6-19.5-67.7-17.3-9.1,3.3-6.3,41.9-8.4,41.9-13.8-6.2-34.8-8.5-47.5-16-4.6-2.7-14.9-6.8-18.5-6.2-9.5,1.6-89.6-37.9-105.7-44.4-15.9-6.5-32.3-11.5-48.8-15.7-.5-5.3-.5-10.8,0-16.2.7-7.7,7.1-40.4,9.7-46.3,2.7-6,24.3.5,29.6,2.2,26.7,8.7,55.3,26.4,82.4,37.1,30.3,12,63.6,24.2,94.3,35,103.3,36.6,203.4,30.1,308,50.6,28.6,5.6,59.7,18.4,88.3,26.2,45.1,12.4,93,18.8,133.7,44.4-2.2,8.5-4,44.1-8.9,48Z"/>
  <path fill="currentColor" d="M306.2,400.9c-.3,3.9-11,.5-13,0-2.8-.7-6.2,0-7-4.4l20,4.4Z"/>
</svg>